# xmcd
#
# Track frame offsets:
#	150
#	23346
#	40798
#	70336
#	86273
#	109505
#	159712
#	171345
#	188365
#	211803
#	226301
#	240498
#	260365
#	271924
#	293346
#	325134
#	343472
#
# Disc length: 4764 seconds
#
# Revision: 1
# Processed by: cddbd v1.5.2PL0 Copyright (c) Steve Scherf et al.
# Submitted via: audiograbber 1.83.01
#
DISCID=da129a11
DTITLE=Chicken  Shack - 2on1: Imagination  Lady - Unlucky  Boy
DYEAR=1900
DGENRE=Bluesrock
TTITLE0=Crying  Won't  Help  You  Now
TTITLE1=Daugther  Of  The  Hillside
TTITLE2=If  I  Were  A  Carpenter
TTITLE3=Going  Down
TTITLE4=Poor  Boy
TTITLE5=Telling  Your  Fortune
TTITLE6=The  Loser
TTITLE7=You  Know  Could  Be  Right
TTITLE8=Revelation
TTITLE9=Prudence's  Party
TTITLE10=Too  Late  to
TTITLE11=Stan  the  Man
TTITLE12=Unlucky  Boy
TTITLE13=As  Time  Goes  Passing
TTITLE14=Jammin'  With  the  Ash
TTITLE15=He  Knows  the  Rules
TTITLE16=As Time  Goes  Passing  By  (single  version)
EXTD=Two Records On One CD Sunrise Records
EXTT0=
EXTT1=
EXTT2=
EXTT3=
EXTT4=
EXTT5=
EXTT6=
EXTT7=
EXTT8=
EXTT9=
EXTT10=
EXTT11=
EXTT12=
EXTT13=
EXTT14=
EXTT15=
EXTT16=
PLAYORDER=
